<svg width="169" height="47" viewBox="0 0 169 47" fill="none" xmlns="http://www.w3.org/2000/svg">
<path d="M25.352 21.448C28.3387 22.0453 30.7493 23.1333 32.584 24.712C34.4187 26.2907 35.336 28.7013 35.336 31.944C35.336 36.7653 33.5867 40.1573 30.088 42.12C26.5893 44.04 21.704 45 15.432 45H0.455994V0.519997H13.704C20.104 0.519997 24.9893 1.416 28.36 3.208C31.7733 4.95733 33.48 7.88 33.48 11.976C33.48 14.5787 32.6907 16.6693 31.112 18.248C29.576 19.784 27.656 20.8507 25.352 21.448ZM12.296 8.776V18.056H15.368C17.4587 18.056 18.9947 17.672 19.976 16.904C20.9573 16.136 21.448 14.8987 21.448 13.192C21.448 11.6133 20.9147 10.4827 19.848 9.8C18.824 9.11733 17.1387 8.776 14.792 8.776H12.296ZM15.496 36.552C18.0133 36.552 19.912 36.1893 21.192 35.464C22.472 34.696 23.112 33.288 23.112 31.24C23.112 29.2773 22.5147 27.8693 21.32 27.016C20.1253 26.12 18.3973 25.672 16.136 25.672H12.296V36.552H15.496Z" fill="#141414"/>
<path d="M59.537 9.864C60.6463 9.864 61.7983 10.056 62.993 10.44L61.137 21.448C60.0277 21.1067 59.0037 20.936 58.065 20.936C56.145 20.936 54.673 21.5973 53.649 22.92C52.6677 24.2 51.8997 26.1627 51.345 28.808V45H39.953V10.888H49.873L50.897 17.352C51.5797 15.0907 52.7103 13.2773 54.289 11.912C55.9103 10.5467 57.6597 9.864 59.537 9.864Z" fill="#141414"/>
<path d="M94.865 27.4C94.865 27.656 94.801 28.936 94.673 31.24H73.809C74.1077 33.8427 74.833 35.6347 75.985 36.616C77.1797 37.5547 78.865 38.024 81.041 38.024C82.321 38.024 83.5797 37.7893 84.817 37.32C86.097 36.808 87.4837 36.04 88.977 35.016L93.585 41.288C91.793 42.7813 89.745 43.976 87.441 44.872C85.137 45.7253 82.641 46.152 79.953 46.152C74.1503 46.152 69.7343 44.5307 66.705 41.288C63.7183 38.0027 62.225 33.608 62.225 28.104C62.225 24.648 62.8437 21.5333 64.081 18.76C65.361 15.9867 67.2383 13.7893 69.713 12.168C72.1877 10.5467 75.1743 9.736 78.673 9.736C83.665 9.736 87.6117 11.2933 90.513 14.408C93.4143 17.48 94.865 21.8107 94.865 27.4ZM83.665 24.2C83.6223 21.9387 83.2383 20.1893 82.513 18.952C81.7877 17.7147 80.5717 17.096 78.865 17.096C77.2863 17.096 76.0917 17.6507 75.281 18.76C74.4703 19.8693 73.9583 21.8107 73.745 24.584H83.665V24.2Z" fill="#141414"/>
<path d="M120.573 9.736C123.474 9.736 125.757 10.632 127.421 12.424C129.085 14.216 129.917 16.7333 129.917 19.976V45H118.525V22.024C118.525 20.5307 118.312 19.5067 117.885 18.952C117.458 18.3547 116.818 18.056 115.965 18.056C114.173 18.056 112.466 19.3573 110.845 21.96V45H99.453V10.888H109.373L110.205 14.728C111.741 13.0213 113.341 11.7627 115.005 10.952C116.669 10.1413 118.525 9.736 120.573 9.736Z" fill="#141414"/>
<path d="M151.625 9.736C156.959 9.736 161.14 11.336 164.169 14.536C167.199 17.736 168.714 22.216 168.714 27.976C168.714 31.6453 168.031 34.8453 166.665 37.576C165.3 40.3067 163.316 42.4187 160.714 43.912C158.154 45.4053 155.124 46.152 151.625 46.152C146.292 46.152 142.111 44.552 139.081 41.352C136.052 38.152 134.537 33.672 134.537 27.912C134.537 24.2427 135.22 21.0427 136.585 18.312C137.951 15.5813 139.913 13.4693 142.473 11.976C145.076 10.4827 148.127 9.736 151.625 9.736ZM151.625 17.992C149.791 17.992 148.425 18.8027 147.529 20.424C146.676 22.0027 146.249 24.4987 146.249 27.912C146.249 31.4533 146.676 34.0133 147.529 35.592C148.425 37.128 149.791 37.896 151.625 37.896C153.46 37.896 154.804 37.1067 155.658 35.528C156.554 33.9067 157.001 31.3893 157.001 27.976C157.001 24.4773 156.554 21.9387 155.658 20.36C154.804 18.7813 153.46 17.992 151.625 17.992Z" fill="#141414"/>
</svg>
